<svg xmlns="http://www.w3.org/2000/svg" viewBox="0 0 780.21 242.16"><defs><style>.cls-1{fill:#0866d0;}.cls-2{fill:#fff;}</style></defs><title>Asset 2</title><g id="Layer_2" data-name="Layer 2"><g id="Layer_1-2" data-name="Layer 1"><rect class="cls-1" width="284.94" height="242.16" rx="23.23"/><path class="cls-2" d="M175.06,141.71l-.9-.47c.09-.32.18-.65.28-1,.22-.76.43-1.53.64-2.31l1.29-4.12c1.86-5.77,3.76-11.14,5.82-16.4,1.9-4.91,4.07-10.13,6.83-16.42l.75-1.7c.36-.82.72-1.64,1.09-2.42l.94-2.11c.32-.67.64-1.36.95-2.07l.27-.6c1-2.12,2-4.3,2.95-6.53a67.48,67.48,0,0,0-6.36,4.71,88.11,88.11,0,0,0-6.91,6.43,100.76,100.76,0,0,0-11.77,14.88,106.39,106.39,0,0,0-8.88,16.91l-.11.28c-.5,1.26-1,2.51-1.46,3.76-.06.14-.12.29-.17.43l-.18.53-.88-.54-1.8-1.09-2.54-1.55-.95-.57c-.57-.34-1.13-.69-1.71-1.05L149.68,127c-.71-.49-1.45-.95-2.18-1.41-1-.63-2-1.28-3-2l-5-3.54c-1.11-.75-2.18-1.56-3.22-2.35l-.82-.62-.8-.6q.27-.4.57-.81c.55-.78,1.12-1.56,1.69-2.33a211.46,211.46,0,0,1,15.25-18.51c.74-.84,1.43-1.57,2.08-2.21l4.21-4.35,2.16-2.06c2.62-2.61,5.53-5.31,8.9-8.25a270.39,270.39,0,0,1,38.29-27.4c-1.07.15-2.14.33-3.25.51l-.91.15c-.66.09-1.3.24-2,.39l-1.11.25c-1.05.23-2.09.46-3.13.73l-3.11.77-3.12.94c-1.66.48-3.32,1.07-4.92,1.65l-1.18.42a130.53,130.53,0,0,0-23.33,11.4A144.24,144.24,0,0,0,123.08,103l-1.31,1.79h0l-.59.8-.77-.64-.32-.26c-3.6-3.15-6.52-5.81-9.19-8.34l-2.29-2.15L106.41,92,105.29,91c-1.11-1.08-2.26-2.2-3.31-3.34-2-2-3.94-4.09-5.85-6.16l-.68-.73.82-.59Q106.13,73,116.12,67l1.15-.7c.69-.44,1.38-.87,2.1-1.28l3.3-1.81L125,61.88c1.38-.78,2.8-1.6,4.26-2.36l3.83-1.94c3.15-1.61,6.42-3.28,9.71-4.75A282.84,282.84,0,0,1,171,41.47a366.09,366.09,0,0,1,57.08-14.36,155.11,155.11,0,0,0-20.59-1.33c-2.6,0-5.27.06-7.95.18A200,200,0,0,0,108,53.32l-6.92,4.15L94.36,62c-1.07.72-2.2,1.49-3.28,2.32s-2.16,1.6-3.23,2.43l-2,1.51-.8.61c-.22-.25-.44-.51-.64-.77-5.21-6.19-10.06-12.3-14.51-18A127.74,127.74,0,0,0,78,73c0,.1.1.21.14.31l.44.93-.75.63,0,0c-.82.71-1.63,1.43-2.41,2.18L73.34,79c-1.27,1.16-2.58,2.36-3.8,3.57l-1.67,1.71c-1.34,1.36-2.67,2.71-4,4.07-1.75,1.91-3.57,3.93-5.39,6a180,180,0,0,0-18.65,26,152,152,0,0,0-12.45,26.25c2.46-3,4.94-5.9,7.36-8.76l1-1.24,2.53-2.95c.48-.57,1-1.12,1.48-1.67s.74-.83,1.09-1.24c1.09-1.27,2.23-2.52,3.34-3.73l1.86-2c6.93-7.57,14.21-14.87,21.65-21.72q8.61-7.82,17.43-14.79s0,0,0,0l.75-.59c.17.29.34.57.53.85q2.31,3.75,4.89,7.42a163.09,163.09,0,0,0,17.28,20.63c.82.82,1.67,1.64,2.52,2.44l.75.71-.5.92-.4.75c-.68,1.24-1.39,2.53-2,3.83A130.75,130.75,0,0,0,99.71,150q-.81,3-1.47,5.94c-.09.39-.17.77-.25,1.16l-.85-.83c-2.77-2.71-5.38-5.38-7.92-8.09-1.86-2-3.71-4-5.28-5.75-1.34-1.5-2.71-3-4.09-4.52a68.16,68.16,0,0,0,5,13.26,83.91,83.91,0,0,0,8.48,13.74c.63.84,1.28,1.66,1.94,2.47.29.36.58.72.88,1.07h0c-.05.46-.1.91-.14,1.37q-.32,2.94-.46,5.89a107.69,107.69,0,0,0,.09,13A82,82,0,0,0,97.1,199.6l.08-.28c2.15-7.42,4.18-14.44,6.63-21.41l.1-.28c.08-.25.16-.49.25-.74l.81.74A93.61,93.61,0,0,0,117.14,187a98.53,98.53,0,0,0,14.3,7.84,95.87,95.87,0,0,0,15.31,5.42,93.78,93.78,0,0,0,9.51,2l1.09.16c.09.35.19.69.3,1A85.26,85.26,0,0,0,164,219.21q.14-3.41.22-6.73c.09-2.87.17-5.6.3-8.34,0-.33,0-.67,0-1l1,.05c1.4.08,2.78.12,4.12.12,2.27,0,4.5-.11,6.65-.31-3.8-1.24-7.3-2.44-10.57-3.62l-1-.35.06-1.05c.27-4.35.63-8.79,1.07-13.25.07-.56.12-1.12.17-1.67.09-.91.17-1.81.3-2.7.18-1.44.36-2.88.53-4.35l.62-4.3.32-2.18.37-2.11c.57-3.62,1.28-7.18,2.06-10.75.07-.33.15-.66.22-1l.63.23.32.11,2.85,1,3.24,1a150.14,150.14,0,0,0,26.17,5.29c5.54.55,10.43.82,15,.82,3.27,0,6.33-.14,9.3-.41-19.25-6.7-33-12.24-45.74-18.39Q178.45,143.43,175.06,141.71ZM154.54,195c-1.78-.74-3.49-1.5-5.18-2.27-.83-.41-1.67-.79-2.51-1.18l-.92-.42-3.34-1.68c-.75-.35-1.48-.75-2.19-1.13l-1.17-.62c-1.07-.55-2.11-1.14-3.13-1.72l-.19-.11-1.16-.65c-.7-.39-1.42-.79-2.11-1.23-1-.66-2.11-1.29-3.17-1.92-.69-.42-1.37-.86-2-1.31l-1.11-.73-1.57-1c-.34-.22-.67-.45-1-.68l-3.64-2.55c-1-.75-2-1.48-2.94-2.21-.66-.46-1.28-1-1.91-1.46l-1.06-.84-1.5-1.16-1.42-1.19c-.79-.64-1.57-1.29-2.35-1.95h0c-.27-.21-.55-.44-.82-.68l.06-.14c.1-.28.21-.57.32-.85.39-1,.82-2,1.24-3,.25-.6.51-1.2.75-1.79.64-1.62,1.36-3.22,2.06-4.77l1.61-3.59,1.89-3.92c.66-1.39,1.35-2.83,2.1-4.2l1-1.93c.59-1.14,1.17-2.28,1.8-3.43.91-1.56,1.78-3.14,2.65-4.72l.28-.51c.27-.46.55-.92.83-1.38.16-.28.34-.57.51-.86l.8.61.81.63c.79.62,1.6,1.25,2.46,1.83a173.16,173.16,0,0,0,23.15,13.88l2.3,1.07.93.44c-.07.34-.14.67-.2,1a107.49,107.49,0,0,0-1.93,15.13c-.1,1.6-.2,3.16-.19,4.76V172c0,1.12,0,2.24,0,3.36.1,2.82.25,6.15.64,9.51s.85,6.39,1.45,9.45c.09.4.17.8.25,1.2Z"/><path class="cls-2" d="M325.1,103.75V15h11.29L358,65.61V15h13.37v88.77H360.6l-21.69-53v53Z"/><path class="cls-2" d="M384.82,103.75V15h37.26v11.4H401V51.91h16.55V63.2H401V92.57H422.3v11.18Z"/><path class="cls-2" d="M428.66,103.75V93.34l23.89-67.18H430V15h38.91v8.33L444.11,92.57H469v11.18Z"/><path class="cls-2" d="M473.81,103.75,491.56,15h17.31l17.76,88.77h-15l-3.51-20.5H492.66L489,103.75ZM494.3,73h12.05l-6-37.26Z"/><path class="cls-2" d="M545.8,103.75,527.94,15H542.3L554,77.78,565,15h14.69L561.8,103.75Z"/><path class="cls-2" d="M589.2,103.75V15h16v88.77Z"/><path class="cls-2" d="M641.25,105q-8,0-13.37-3.12a19.6,19.6,0,0,1-8.1-9.15,39.25,39.25,0,0,1-3.07-14.8l13.91-2.74a43.52,43.52,0,0,0,1.26,9.1,13.23,13.23,0,0,0,3.18,6.08,7.63,7.63,0,0,0,5.65,2.14c2.63,0,4.49-.78,5.59-2.36a10.23,10.23,0,0,0,1.64-6,16.16,16.16,0,0,0-2.63-9.53,41,41,0,0,0-7-7.46l-11.18-9.86a33.44,33.44,0,0,1-7.51-9,24.93,24.93,0,0,1-2.79-12.33q0-10.51,6.13-16.22T639.72,14a24.88,24.88,0,0,1,10.41,1.92,16.48,16.48,0,0,1,6.63,5.32A23.75,23.75,0,0,1,660.43,29,45.3,45.3,0,0,1,662,38.1l-13.81,2.41a48.19,48.19,0,0,0-.93-7.45,10.45,10.45,0,0,0-2.52-5.15,7.1,7.1,0,0,0-5.32-1.86,6.7,6.7,0,0,0-5.53,2.35,9,9,0,0,0-1.92,5.87,13.52,13.52,0,0,0,1.86,7.4,29.11,29.11,0,0,0,5.37,6l11.07,9.75a45.85,45.85,0,0,1,9.37,10.8,27.55,27.55,0,0,1,3.89,15,22.53,22.53,0,0,1-2.79,11.29,20.14,20.14,0,0,1-7.78,7.73A23.55,23.55,0,0,1,641.25,105Z"/><path class="cls-2" d="M672.16,103.75V15h11.29L705,65.61V15H718.4v88.77H707.66L686,50.71v53Z"/><path class="cls-2" d="M727.39,103.75,745.14,15h17.32l17.75,88.77h-15l-3.51-20.5H746.24l-3.62,20.5ZM747.88,73h12.06l-6-37.26Z"/><path class="cls-2" d="M341.25,228.16V139.72H325V126h51v13.75h-16v88.44Z"/><path class="cls-2" d="M400.93,228.16,380.36,126h16.53l13.5,72.29L423,126h16.91L419.35,228.16Z"/><path class="cls-2" d="M460.76,228.16,462.53,126h19.3l14.51,70.78L511.48,126h18.67l1.9,102.19H518.17l-1.51-71-14.51,71H490.92l-14.76-71.28-1.39,71.28Z"/><path class="cls-2" d="M546.43,228.16V126h24.48a54,54,0,0,1,17.47,2.46,20.09,20.09,0,0,1,10.85,8.39Q603,142.76,603,153a50,50,0,0,1-1.13,11.1,21.13,21.13,0,0,1-3.85,8.39,17.27,17.27,0,0,1-7.51,5.36l14.26,50.34H586.05l-12.37-46.8H565.1v46.8Zm18.67-58.54h5.81a19.89,19.89,0,0,0,8.64-1.57,9.21,9.21,0,0,0,4.6-5.05,24.1,24.1,0,0,0,1.39-8.89q0-7.7-2.84-11.55t-10.78-3.85H565.1Z"/><path class="cls-2" d="M617,228.16V126h42.89v13.12H635.63v29.4h19v13h-19V215.3H660.1v12.86Z"/><path class="cls-2" d="M667.42,228.16v-12l27.51-77.34h-26V126h44.78v9.59L685.21,215.3h28.64v12.86Z"/><path class="cls-2" d="M719.4,228.16,739.84,126h19.93l20.44,102.19H762.93l-4-23.59H741.1l-4.16,23.59ZM743,192.71h13.88l-6.94-42.89Z"/></g></g></svg>